<svg width="60" height="60" viewBox="0 0 60 60" fill="none" xmlns="http://www.w3.org/2000/svg">
<rect width="60" height="60" rx="30" fill="white"/>
<path d="M41.875 18.5674V43.4922L29.0049 56.8564L23.5957 50.4629L23.5918 50.458L17.125 43.4932V18.5947L34.9531 1.21973L41.875 18.5674Z" fill="#2C2C2C" stroke="black" stroke-width="0.25"/>
<path d="M42 41.5432C41.9578 41.5191 41.9156 41.495 41.8735 41.4709C41.8008 41.4294 41.728 41.3878 41.6553 41.3463C39.5874 40.1646 37.5194 38.9829 35.4515 37.8012C35.3366 37.7356 35.2217 37.6699 35.1068 37.6043C35.078 37.5878 35.0441 37.5836 35.0122 37.5929C34.9804 37.6021 34.9533 37.624 34.937 37.6535C34.9208 37.683 34.9168 37.7176 34.926 37.7494C34.9352 37.7813 34.9569 37.8078 34.9862 37.8233C35.1031 37.8853 35.22 37.9473 35.3369 38.0093C37.441 39.1253 39.5452 40.2413 41.6493 41.3572C41.7233 41.3965 41.7973 41.4357 41.8712 41.4749C41.9142 41.4977 41.9571 41.5205 42 41.5432Z" fill="black"/>
<path d="M42 41.5432C41.9578 41.5191 41.9156 41.495 41.8735 41.4709C41.8008 41.4294 41.728 41.3878 41.6553 41.3463C39.5874 40.1646 37.5194 38.9829 35.4515 37.8012C35.3366 37.7356 35.2217 37.6699 35.1068 37.6043C35.078 37.5878 35.0441 37.5836 35.0122 37.5929C34.9804 37.6021 34.9533 37.624 34.937 37.6535C34.9208 37.683 34.9168 37.7176 34.926 37.7494C34.9352 37.7813 34.9569 37.8078 34.9862 37.8233C35.1031 37.8853 35.22 37.9473 35.3369 38.0093C37.441 39.1253 39.5452 40.2413 41.6493 41.3572C41.7233 41.3965 41.7973 41.4357 41.8712 41.4749C41.9142 41.4977 41.9571 41.5205 42 41.5432Z" fill="black"/>
<path d="M22 37.95V19.5432M35.0559 37.655L29 40.5432M35 37.68V19.4495" stroke="black" stroke-width="0.25" stroke-linecap="round"/>
<path d="M35.0559 37.655L29 40.5432" stroke="black" stroke-width="0.25"/>
<path d="M23.0688 39.6476C23.0968 39.6298 23.1164 39.6018 23.123 39.5693C23.1297 39.5368 23.1229 39.5026 23.1043 39.4744C23.0858 39.4463 23.057 39.4265 23.0245 39.4199C22.992 39.4132 22.9585 39.4201 22.9312 39.4389C22.9312 39.4389 22.9312 39.4389 22.9312 39.4389C22.8901 39.467 22.849 39.4952 22.8079 39.5233C22.7501 39.5629 22.6924 39.6024 22.6346 39.6419C20.8553 40.8603 19.0759 42.0786 17.2966 43.2969C17.1977 43.3646 17.0989 43.4323 17 43.5C17.1011 43.4358 17.2023 43.3716 17.3034 43.3074C19.1241 42.1517 20.9447 40.9959 22.7654 39.8402C22.8245 39.8027 22.8835 39.7652 22.9426 39.7277C22.9847 39.701 23.0267 39.6743 23.0688 39.6476Z" fill="black"/>
<path d="M23 39.5433L29 40.5432L24 46.5433M35 38L35 19.7695" stroke="black" stroke-width="0.25"/>
<path d="M42 18.5C41.883 18.5153 41.7661 18.5307 41.6491 18.546C39.5435 18.8219 37.438 19.0977 35.3325 19.3736C35.2155 19.389 35.0985 19.4043 34.9816 19.4196C34.9487 19.4239 34.9191 19.4411 34.8994 19.4678C34.8797 19.4944 34.8714 19.5283 34.8764 19.5617C34.8813 19.595 34.8991 19.6251 34.9258 19.6448C34.9524 19.6645 34.9857 19.6724 35.0184 19.6669C35.0184 19.6669 35.0184 19.6669 35.0184 19.6669C35.1348 19.6474 35.2511 19.628 35.3675 19.6085C37.462 19.2585 39.5564 18.9084 41.6509 18.5583C41.7673 18.5389 41.8836 18.5194 42 18.5Z" fill="black"/>
<path d="M35 19.5L30.5 16.5432L22 19.5432" stroke="black" stroke-width="0.25"/>
<path d="M21.9745 19.6656C22.0068 19.6732 22.0404 19.6675 22.0682 19.6493C22.0959 19.6312 22.1154 19.602 22.1224 19.5688C22.1293 19.5355 22.1231 19.501 22.1049 19.4733C22.0867 19.4455 22.0581 19.4268 22.0255 19.4209C22.0255 19.4209 22.0255 19.4209 22.0255 19.4209C21.9418 19.4055 21.858 19.3902 21.7743 19.3748C20.2666 19.0986 18.7589 18.8223 17.2513 18.546C17.1675 18.5307 17.0838 18.5153 17 18.5C17.0829 18.5194 17.1658 18.5389 17.2487 18.5583C18.7411 18.908 20.2334 19.2576 21.7257 19.6073C21.8087 19.6267 21.8916 19.6462 21.9745 19.6656Z" fill="black"/>
<path d="M30.38 16.5085C30.46 16.5317 30.54 16.5548 30.6201 16.578C30.6931 16.3184 30.7661 16.0587 30.8391 15.7991C32.1531 11.1257 33.467 6.4523 34.781 1.7789C34.854 1.51927 34.927 1.25964 35 1C34.923 1.25848 34.846 1.51695 34.769 1.77542C33.383 6.42797 31.997 11.0805 30.611 15.7331C30.534 15.9915 30.457 16.25 30.38 16.5085Z" fill="black"/>
<path d="M23 50C23.0187 49.943 23.0373 49.8859 23.056 49.8289C23.392 48.8023 23.728 47.7757 24.0641 46.7491C24.0827 46.692 24.1014 46.635 24.1201 46.578C24.1304 46.5465 24.1276 46.5125 24.1116 46.4835C24.0956 46.4545 24.0677 46.4327 24.0347 46.4232C24.0018 46.4136 23.9666 46.4172 23.9376 46.4332C23.9085 46.4492 23.888 46.4763 23.8799 46.5085C23.8799 46.5085 23.8799 46.5085 23.8799 46.5085C23.8653 46.5667 23.8506 46.6249 23.8359 46.6831C23.572 47.7305 23.308 48.778 23.044 49.8254C23.0293 49.8836 23.0147 49.9418 23 50Z" fill="black"/>
<path d="M23.104 39.4739C23.1224 39.5015 23.1291 39.5352 23.1226 39.5678C23.1161 39.6003 23.0969 39.6289 23.0693 39.6472C23.0418 39.6656 23.008 39.6723 22.9755 39.6658C22.943 39.6593 22.9144 39.6402 22.896 39.6126C22.8793 39.5876 22.8627 39.5626 22.846 39.5376C22.546 39.0876 22.246 38.6376 21.946 38.1876C21.9293 38.1626 21.9127 38.1376 21.896 38.1126C21.8776 38.085 21.8709 38.0512 21.8774 38.0187C21.8839 37.9862 21.9031 37.9576 21.9307 37.9392C21.9582 37.9208 21.992 37.9142 22.0245 37.9207C22.057 37.9272 22.0856 37.9463 22.104 37.9739C22.1207 37.9989 22.1373 38.0239 22.154 38.0489C22.454 38.4989 22.754 38.9489 23.054 39.3989C23.0707 39.4239 23.0873 39.4489 23.104 39.4739Z" fill="black"/>
<path d="M39.9533 50.0498L39.4563 54.5234L37.509 56.4711L36.0523 54.044L39.4866 48.6473L39.9533 50.0498Z" fill="#969696" stroke="black" stroke-width="0.09"/>
<path d="M39.5 48.5432C39.4741 48.6263 39.4482 48.7094 39.4224 48.7925C38.9566 50.2877 38.4908 51.783 38.025 53.2782C37.9991 53.3613 37.9732 53.4444 37.9473 53.5274C37.9824 53.538 38.0176 53.5485 38.0527 53.5591C38.0768 53.4755 38.1009 53.3919 38.125 53.3083C38.5592 51.8035 38.9934 50.2988 39.4276 48.794C39.4518 48.7104 39.4759 48.6268 39.5 48.5432Z" fill="black"/>
<path d="M39.5 54.5432C39.4755 54.5258 39.451 54.5084 39.4265 54.491C38.9857 54.1772 38.5448 53.8635 38.104 53.5498C38.0795 53.5323 38.055 53.5149 38.0305 53.4975C38.0102 53.528 37.9898 53.5585 37.9695 53.589C37.995 53.6049 38.0205 53.6208 38.046 53.6367C38.5052 53.923 38.9643 54.2093 39.4235 54.4955C39.449 54.5114 39.4745 54.5273 39.5 54.5432Z" fill="black"/>
<path d="M36 54.0432C36.0331 54.034 36.0662 54.0248 36.0993 54.0156C36.6953 53.8496 37.2913 53.6836 37.8873 53.5176C37.9204 53.5083 37.9535 53.4991 37.9867 53.4899C37.9956 53.5255 38.0044 53.561 38.0133 53.5966C37.9798 53.604 37.9462 53.6115 37.9127 53.6189C37.3087 53.7529 36.7047 53.8869 36.1007 54.0209C36.0671 54.0284 36.0336 54.0358 36 54.0432Z" fill="black"/>
<path d="M20.9771 53.5398L19.5071 55.4583L18.5484 53.5407L19.5077 51.1436L20.9771 53.5398Z" fill="#BFBFBF" stroke="black" stroke-width="0.09"/>
<path d="M21 53.5432C20.9833 53.5442 20.9667 53.5451 20.95 53.546C20.65 53.5625 20.35 53.579 20.05 53.5955C20.0333 53.5964 20.0167 53.5973 20 53.5982C20 53.5616 20 53.5249 20 53.4882C20.0167 53.4892 20.0333 53.4901 20.05 53.491C20.35 53.5075 20.65 53.524 20.95 53.5405C20.9667 53.5414 20.9833 53.5423 21 53.5432Z" fill="black"/>
<path d="M18.5 53.5432C18.525 53.5442 18.55 53.5451 18.575 53.546C19.025 53.5625 19.475 53.579 19.925 53.5955C19.95 53.5964 19.975 53.5973 20 53.5982C20 53.5616 20 53.5249 20 53.4882C19.975 53.4892 19.95 53.4901 19.925 53.491C19.475 53.5075 19.025 53.524 18.575 53.5405C18.55 53.5414 18.525 53.5423 18.5 53.5432Z" fill="black"/>
<path d="M19.5 51.0432C19.5092 51.0847 19.5185 51.1262 19.5277 51.1677C19.6939 51.9145 19.8601 52.6612 20.0262 53.408C20.0355 53.4495 20.0447 53.491 20.0539 53.5325C20.018 53.5396 19.982 53.5468 19.9461 53.554C19.9386 53.5122 19.9312 53.4703 19.9238 53.4285C19.7899 52.6753 19.6561 51.922 19.5223 51.1688C19.5149 51.1269 19.5074 51.0851 19.5 51.0432Z" fill="black"/>
<path d="M19.5 55.5432C19.5074 55.5097 19.5149 55.4761 19.5223 55.4426C19.6563 54.8386 19.7903 54.2346 19.9243 53.6306C19.9318 53.597 19.9392 53.5635 19.9466 53.5299C19.9822 53.5388 20.0178 53.5477 20.0534 53.5566C20.0441 53.5897 20.0349 53.6228 20.0257 53.6559C19.8597 54.2519 19.6937 54.8479 19.5277 55.4439C19.5184 55.477 19.5092 55.5101 19.5 55.5432Z" fill="black"/>
<path d="M44.5 13.5C44.5 13.5 45.7195 11.5 45.7195 10.0334C45.7195 8.56689 45.7256 10.0107 45.7289 10C45.7195 11.2476 47 13.5 47 13.5C47 13.5 45.4758 16 45.4758 17.1003C45.4758 18.2006 45.4649 17.1603 45.4548 17.1819C45.4758 15.5669 44.5 13.5 44.5 13.5Z" fill="#ADADAD"/>
<path d="M49.0175 22.1247C49.0175 22.1247 50.237 20.1247 50.237 18.6582C50.237 17.1916 50.2431 18.6355 50.2464 18.6247C50.237 19.8723 51.5175 22.1247 51.5175 22.1247C51.5175 22.1247 49.9933 24.6247 49.9933 25.725C49.9933 26.8253 49.9824 25.785 49.9723 25.8066C49.9933 24.1916 49.0175 22.1247 49.0175 22.1247Z" fill="#ADADAD"/>
<path d="M14.0175 8.12471C14.0175 8.12471 15.237 6.12471 15.237 4.65816C15.237 3.1916 15.2431 4.63545 15.2464 4.62471C15.237 5.8723 16.5175 8.12471 16.5175 8.12471C16.5175 8.12471 14.9933 10.6247 14.9933 11.725C14.9933 12.8253 14.9824 11.785 14.9723 11.8066C14.9933 10.1916 14.0175 8.12471 14.0175 8.12471Z" fill="#ADADAD"/>
<path d="M10.0175 32.1247C10.0175 32.1247 11.237 30.1247 11.237 28.6582C11.237 27.1916 11.2431 28.6354 11.2464 28.6247C11.237 29.8723 12.5175 32.1247 12.5175 32.1247C12.5175 32.1247 10.9933 34.6247 10.9933 35.725C10.9933 36.8253 10.9824 35.785 10.9723 35.8066C10.9933 34.1916 10.0175 32.1247 10.0175 32.1247Z" fill="#ADADAD"/>
<path d="M21.3667 51.5008C21.3667 51.5008 21.5137 51.2583 21.5128 51.08C21.5119 50.9017 21.5135 51.0773 21.5139 51.076C21.5135 51.2276 21.6705 51.5023 21.6705 51.5023C21.6705 51.5023 21.4869 51.8053 21.4875 51.9391C21.4882 52.0729 21.4862 51.9464 21.485 51.949C21.4866 51.7527 21.3667 51.5008 21.3667 51.5008Z" fill="#ADADAD"/>
<path d="M18.3667 52.5008C18.3667 52.5008 18.5137 52.2583 18.5128 52.08C18.5119 51.9017 18.5135 52.0773 18.5139 52.076C18.5135 52.2276 18.6705 52.5023 18.6705 52.5023C18.6705 52.5023 18.4869 52.8053 18.4875 52.9391C18.4882 53.0729 18.4862 52.9464 18.485 52.949C18.4866 52.7527 18.3667 52.5008 18.3667 52.5008Z" fill="#ADADAD"/>
<path d="M21.3667 54.5008C21.3667 54.5008 21.5137 54.2583 21.5128 54.08C21.5119 53.9017 21.5135 54.0773 21.5139 54.076C21.5135 54.2276 21.6705 54.5023 21.6705 54.5023C21.6705 54.5023 21.4869 54.8053 21.4875 54.9391C21.4882 55.0729 21.4862 54.9464 21.485 54.949C21.4866 54.7527 21.3667 54.5008 21.3667 54.5008Z" fill="#ADADAD"/>
<path d="M40.3667 50.5008C40.3667 50.5008 40.5137 50.2583 40.5128 50.08C40.5119 49.9017 40.5135 50.0773 40.5139 50.076C40.5135 50.2276 40.6705 50.5023 40.6705 50.5023C40.6705 50.5023 40.4869 50.8053 40.4875 50.9391C40.4882 51.0729 40.4862 50.9464 40.485 50.949C40.4866 50.7527 40.3667 50.5008 40.3667 50.5008Z" fill="#ADADAD"/>
<path d="M36.3667 51.5008C36.3667 51.5008 36.5137 51.2583 36.5128 51.08C36.5119 50.9017 36.5135 51.0773 36.5139 51.076C36.5135 51.2276 36.6705 51.5023 36.6705 51.5023C36.6705 51.5023 36.4869 51.8053 36.4875 51.9391C36.4882 52.0729 36.4862 51.9464 36.485 51.949C36.4866 51.7527 36.3667 51.5008 36.3667 51.5008Z" fill="#ADADAD"/>
<path d="M40.3667 53.5008C40.3667 53.5008 40.5137 53.2583 40.5128 53.08C40.5119 52.9017 40.5135 53.0773 40.5139 53.076C40.5135 53.2276 40.6705 53.5023 40.6705 53.5023C40.6705 53.5023 40.4869 53.8053 40.4875 53.9391C40.4882 54.0729 40.4862 53.9464 40.485 53.949C40.4866 53.7527 40.3667 53.5008 40.3667 53.5008Z" fill="#ADADAD"/>
</svg>
